<svg xmlns="http://www.w3.org/2000/svg" viewBox="0 0 32 32"><defs/><g id="Layer_26" data-name="Layer 26"><path d="M14 25.18a5 5 0 0 1-5-5v-1.82a1 1 0 0 1 .49-.86l3.63-2.18a1 1 0 0 1 1 1.72L11 18.93v1.25a3 3 0 0 0 3 3 1 1 0 0 1 0 2ZM7 25.18H6a5 5 0 0 1-5-5v-1.82a1 1 0 0 1 .49-.86l3.63-2.18a1 1 0 0 1 1 1.72L3 18.93v1.25a3 3 0 0 0 3 3h1a1 1 0 0 1 0 2ZM10 15a6 6 0 0 1 0-12 1 1 0 0 1 0 2 4 4 0 0 0 0 8 1 1 0 0 1 0 2ZM18 15a6 6 0 1 1 6-6 6 6 0 0 1-6 6Zm0-10a4 4 0 1 0 4 4 4 4 0 0 0-4-4ZM24 29a7 7 0 1 1 7-7 7 7 0 0 1-7 7Zm0-12a5 5 0 1 0 5 5 5 5 0 0 0-5-5Z" class="cls-1"/><path d="M21 21h6v2h-6z" class="cls-1"/><path d="M23 19h2v6h-2z" class="cls-1"/></g></svg>