<svg xmlns="http://www.w3.org/2000/svg" xml:space="preserve" viewBox="0 0 32 32"><path d="m28.562 25.996-2.058-5.625c.641-1.516.995-3.184.995-4.934C27.5 8.43 21.82 2.75 14.812 2.75c-7.007 0-12.688 5.68-12.688 12.688 0 7.008 5.68 12.688 12.688 12.688 3.006 0 5.764-1.051 7.938-2.797l4.638 1.816c1.024.402 1.553-.116 1.174-1.149zM8.5 17.062a1.626 1.626 0 1 1 .001-3.251 1.626 1.626 0 0 1-.001 3.251zm6 0a1.626 1.626 0 1 1 .001-3.251 1.626 1.626 0 0 1-.001 3.251zm6 0a1.626 1.626 0 1 1 .001-3.251 1.626 1.626 0 0 1-.001 3.251z"/></svg>