<svg xmlns="http://www.w3.org/2000/svg" xml:space="preserve" viewBox="0 0 32 32">
    <path  fill="#ffff" d="M21 23.5c-.294 0-.584-.017-.869-.05a.5.5 0 0 1 .115-.993A6.508 6.508 0 0 0 27.5 16a6.508 6.508 0 0 0-7.271-6.455.5.5 0 0 1-.117-.993c.292-.034.588-.052.888-.052 4.136 0 7.5 3.364 7.5 7.5s-3.364 7.5-7.5 7.5z" />
    <path  fill="#ffff" d="M21 26c-1.061 0-2.105-.166-3.105-.491a.5.5 0 0 1 .309-.951A8.99 8.99 0 0 0 21 25c4.962 0 9-4.037 9-9s-4.038-9-9-9c-.969 0-1.923.153-2.834.455a.5.5 0 0 1-.315-.949A9.986 9.986 0 0 1 21 6c5.514 0 10 4.486 10 10s-4.486 10-10 10z" />
    <path  fill="#ffff" d="M11 26C5.486 26 1 21.514 1 16S5.486 6 11 6s10 4.486 10 10-4.486 10-10 10zm0-19c-4.962 0-9 4.037-9 9s4.038 9 9 9 9-4.037 9-9-4.038-9-9-9z" />
    <path  fill="#ffff" d="M16.918 20.601a.5.5 0 0 1-.751-.657c1.966-2.574 1.72-6.244-.574-8.538a6.457 6.457 0 0 0-6.176-1.71.5.5 0 0 1-.242-.97 7.546 7.546 0 0 1 7.125 1.973c2.646 2.646 2.932 6.883.661 9.852a.669.669 0 0 1-.043.05zM13.051 23.147a.505.505 0 0 1-.232.131 7.547 7.547 0 0 1-7.125-1.974c-2.621-2.621-2.924-6.832-.704-9.795a.502.502 0 0 1 .801.6c-1.924 2.566-1.661 6.216.61 8.487a6.455 6.455 0 0 0 6.176 1.71.5.5 0 0 1 .474.841z" />
    <g>
        <path  fill="#ffff" d="M11.5 20h-3a.5.5 0 0 1 0-1h3c.827 0 1.5-.673 1.5-1.5s-.673-1.5-1.5-1.5h-2v-1h2c1.378 0 2.5 1.122 2.5 2.5S12.878 20 11.5 20z" />
        <path  fill="#ffff" d="M11 16H9.5v-1H11a1.001 1.001 0 0 0 0-2H8.5a.5.5 0 0 1 0-1H11c1.103 0 2 .897 2 2s-.897 2-2 2zM10.5 20.998a.5.5 0 0 1-.5-.5v-1h1v1a.5.5 0 0 1-.5.5z" />
        <path  fill="#ffff" d="M10 12.5v-1a.5.5 0 0 1 1 0v1h-1zM9 13h1v6H9z" />
    </g>
</svg>