<svg xmlns="http://www.w3.org/2000/svg" viewBox="0 0 103.82 103.68">
    <path
        d="M103 90.75a6 6 0 0 0-.23-.68c-1.19-2.6-2.36-5.22-3.45-7.86-.71-1.72-1.36-3.46-2-5.21v-.11a2.46 2.46 0 0 1 .35-.64 22.9 22.9 0 0 0 1.78-3.74 51.85 51.85 0 0 0 .63-40A52.46 52.46 0 0 0 40.41 1.2C16.33 6.48-1.16 29.51.06 54.09a52.39 52.39 0 0 0 45.62 49.19 50.48 50.48 0 0 0 23.68-2.66 33.52 33.52 0 0 0 5.46-2.32 2.23 2.23 0 0 1 .49 0c.77.15 3.56.56 5.26.85 4.15.73 8.27 1.59 12.41 2.35 2.21.4 4.3.69 6.41-.35a7.78 7.78 0 0 0 3.9-9.81 4 4 0 0 0-.29-.59Zm-5.81-13.5Zm-22.38 21c-.66.28-.76 0 0 0Z" />
</svg>