<svg xmlns="http://www.w3.org/2000/svg" xml:space="preserve" viewBox="0 0 48 48">
    <g id="Icons">
        <path d="M21.722 27.493c2.708-.061 4.185-4.37 4.185-4.37 1.057-.422 1.57-2.392.812-3.258-.23-.262-.596-.524-.88-.722l.01.012a3.13 3.13 0 0 0 .058-.65 4.186 4.186 0 0 0-4.18-4.18 4.19 4.19 0 0 0-4.195 4.18c0 .222.015.443.059.65-.284.199-.636.448-.866.71-.758.866-.245 2.836.812 3.259 0 0 1.477 4.308 4.185 4.37M13.913 29.864l.384-.221 3.619-2.142c1.27 1.344 2.555 1.98 3.87 1.98 1.344 0 2.718-.68 4.121-1.98l4.166 2.127.222.103a2.1 2.1 0 0 1 1.122 1.847 2.106 2.106 0 0 1-2.097 2.097H15.11a2.093 2.093 0 0 1-2.083-2.097c0-.71.354-1.33.886-1.714l.384-.221M29.677 23.338l1.99 2.012 3.306-5.463" class="st1" />
    </g>
</svg>