<svg xmlns="http://www.w3.org/2000/svg" viewBox="0 0 115 114">
    <rect width="100%" height="100%" fill="none" />
    <g class="currentLayer">
        <path d="M104.321 0h-93.48A11 11 0 0 0 .001 11.16v91.26a11 11 0 0 0 10.84 11.16h93.48a11 11 0 0 0 10.84-11.16V11.16A11 11 0 0 0 104.321 0zm3.47 65.49v36.93a3.55 3.55 0 0 1-3.47 3.62h-93.48a3.55 3.55 0 0 1-3.47-3.62V65.49h15.43l6 13.88a3.41 3.41 0 0 0 3.14 2.1h18.9a3.45 3.45 0 0 0 3.22-2.3l4.18-11.64 5.1 11.85a3.43 3.43 0 0 0 3.14 2.09h18.92a3.44 3.44 0 0 0 3.22-2.3l4.91-13.68zm-24.79 8.96h-14.28l-3.86-9h21.36zm-34.56 0h-14.28l-3.86-9h21.36zm-17.44-24.38h49.51a3.41 3.41 0 0 0 2.54-1.14 3.51 3.51 0 0 0 .88-2.63l-.57-9.2a3.45 3.45 0 0 0-3.42-3.22h-40.51l4.3-9.57h36.21a3.51 3.51 0 0 0 0-7h-38.41a3.46 3.46 0 0 0-3.13 2l-7.4 16.62a3.54 3.54 0 0 0 .21 3.33 3.4 3.4 0 0 0 2.9 1.64h42.63l.1 2.15h-46.78a3.33 3.33 0 0 0-1.71.47l-21 12.26V11.16a3.54 3.54 0 0 1 3.47-3.62h93.48a3.54 3.54 0 0 1 3.47 3.62v47.31h-91.17z" />
    </g>
</svg>