<svg xmlns="http://www.w3.org/2000/svg" viewBox="0 0 82.84 110.6"><defs/><g id="Capa_2" data-name="Capa 2"><g id="Capa_1-2" data-name="Capa 1"><path d="M82 44.38c-3.15-8.91-15-5.59-15-5.59-4.89-7.17-14.32-3.15-14.32-3.15-4.37-8.73-16.78-6.46-16.78-6.46V7.51h-.18A7.6 7.6 0 0 0 21.1 4.63l-.43-.09V6a7.61 7.61 0 0 0 0 3.2v2.51s-.35 23.41 0 44.55L12.2 49a6.83 6.83 0 1 0-8.47 10.31l.4.62c19.53 27.18 18.45 39.92 18.45 39.92s51.84 3.24 52.6-.26c1.25-5.74 2.86-10 3.82-13.4a88 88 0 0 0 3.38-22.46c.14-6.73 1.16-14.97-.38-19.35ZM22.45 104h52.87v6.61H22.45z" class="cls-1"/></g></g></svg>