<svg xmlns="http://www.w3.org/2000/svg" viewBox="0 0 104.82 99.89">
    <defs>
        <style>.cls-1{fill:#fff;opacity:0.5;}</style>
    </defs>
    <g id="Capa_2" data-name="Capa 2">
        <g id="Capa_1-2" data-name="Capa 1">
            <path class="cls-1" d="M83.1,99.62,53.23,84a1.65,1.65,0,0,0-1.53,0L21.88,99.7A1.65,1.65,0,0,1,19.49,98l5.66-33.24a1.65,1.65,0,0,0-.48-1.46L.5,39.77A1.65,1.65,0,0,1,1.41,37l33.36-4.89a1.6,1.6,0,0,0,1.23-.9L50.89.92a1.65,1.65,0,0,1,3,0l15,30.22A1.64,1.64,0,0,0,70,32l33.38,4.8a1.65,1.65,0,0,1,.91,2.81L80.21,63.2a1.65,1.65,0,0,0-.47,1.46l5.74,33.22A1.64,1.64,0,0,1,83.1,99.62Z" />
        </g>
    </g>
</svg>