<svg xmlns="http://www.w3.org/2000/svg" xml:space="preserve" id="Layer_1" style="enable-background:new 0 0 128 128" version="1.1" viewBox="0 0 128 128"><path d="M98.094 37.911c-.369-1.387-1.12-2.863-1.674-4.157-6.65-15.974-21.174-21.701-32.902-21.701-15.702 0-32.994 10.527-35.303 32.229v4.434c0 .185.063 1.846.156 2.678 1.294 10.342 9.453 21.334 15.548 31.676 6.556 11.082 13.361 21.979 20.102 32.877 4.155-7.11 8.297-14.313 12.359-21.242 1.106-2.031 2.393-4.062 3.501-6.003.738-1.291 2.148-2.584 2.794-3.785 6.556-12.005 17.11-24.104 17.11-36.016v-4.896c.001-1.291-1.598-5.816-1.691-6.094zm-34.29 22.255c-4.616 0-9.666-2.308-12.16-8.68-.372-1.015-.342-3.047-.342-3.232V45.39c0-8.124 6.899-11.819 12.9-11.819 7.389 0 13.103 5.91 13.103 13.298 0 7.389-6.113 13.297-13.501 13.297z"/></svg>