<svg xmlns="http://www.w3.org/2000/svg" viewBox="0 0 104.73 99.89"><defs><style>.cls-1{fill:#a39f9f;opacity:0.5;}.cls-2{fill:#fff;}</style></defs><g id="Capa_2" data-name="Capa 2"><g id="Capa_1-2" data-name="Capa 1"><path class="cls-1" d="M82.93,99.41,53.33,83.9a1.76,1.76,0,0,0-1.64,0L22.13,99.49a1.76,1.76,0,0,1-2.56-1.85l5.61-32.95a1.75,1.75,0,0,0-.51-1.56L.71,39.84a1.77,1.77,0,0,1,1-3L34.75,32a1.77,1.77,0,0,0,1.32-1L50.83,1A1.75,1.75,0,0,1,54,1L68.81,31a1.75,1.75,0,0,0,1.33,1l33.08,4.76a1.76,1.76,0,0,1,1,3L80.29,63.06a1.77,1.77,0,0,0-.5,1.56l5.69,32.94A1.76,1.76,0,0,1,82.93,99.41Z"/><path class="cls-2" d="M52.47,83.78a1.6,1.6,0,0,0-.77.19L21.88,99.69A1.64,1.64,0,0,1,19.49,98l5.66-33.24a1.64,1.64,0,0,0-.48-1.45L.5,39.77A1.65,1.65,0,0,1,1.41,37l33.36-4.89a1.62,1.62,0,0,0,1.23-.9L50.89.92A1.61,1.61,0,0,1,52.27,0C52.88,0,52.73,83.78,52.47,83.78Z"/></g></g></svg>