<svg xmlns="http://www.w3.org/2000/svg" viewBox="0 0 110.98 47.85"><defs/><g id="Capa_2" data-name="Capa 2"><g id="Capa_1-2" data-name="Capa 1"><path d="M39.58 7v35.24c0 3.5-1.48 5.61-3.9 5.61s-3.95-2.11-3.95-5.61V18h-.1l-8.16 18.13c-1 2.18-2.16 3-3.68 3s-2.69-.84-3.63-2.95L7.79 17.61h-.11v24.77c0 3.43-1.42 5.47-3.84 5.47S0 45.81 0 42.38V7.23C0 3.23 1.79 0 5 0c2.31 0 3.73 1.12 5 3.86L19.89 26l10-22.17C31.1 1.12 32.52 0 34.84 0c3 0 4.74 3.16 4.74 7ZM58.83 30.38l-9.21 15.43a3.72 3.72 0 0 1-3.1 2c-2.27 0-3.84-2-3.84-5.05a6.66 6.66 0 0 1 1.15-3.93l9.79-15.23-9.26-14.27a6.92 6.92 0 0 1-1.26-4C43.1 2 44.78 0 47 0c1.37 0 2.37.91 3.27 2.46l8.63 14.31L67.78 2a3.72 3.72 0 0 1 3.1-2c2.27 0 3.85 2 3.85 5.05A6.69 6.69 0 0 1 73.57 9l-9.42 14.5 9.73 15a6.86 6.86 0 0 1 1.27 4c0 3.29-1.69 5.33-4 5.33-1.37 0-2.37-.91-3.26-2.46ZM111 5.47v36c0 3.86-1.73 6.39-4.31 6.39-1.79 0-3.42-.91-4.69-3.09L86 16.84h-.11v25.54c0 3.43-1.42 5.47-3.84 5.47s-3.84-2-3.84-5.47v-36C78.25 2.53 80.14 0 82.67 0c2 0 3.31.84 4.47 2.81l16 28.13h.11V5.47C103.3 2 104.77 0 107.14 0S111 2 111 5.47Z" class="cls-1"/></g></g></svg>