<svg xmlns="http://www.w3.org/2000/svg" viewBox="0 0 88.49 96.92"><g data-name="Capa 2"><g data-name="Capa 1"><path d="M75.21 61.8 75 60.15a38.3 38.3 0 1 0-61.73 1.61L0 84.48l14.93-.83 6.64 13.27 13-21.39a38.31 38.31 0 0 0 19.18-.31l13.18 21.7 6.63-13.27 14.94.83Zm-31.66 3.74A27.24 27.24 0 1 1 70.79 38.3a27.25 27.25 0 0 1-27.24 27.24Z"/><path d="M53.1 54.61 44.3 50a2 2 0 0 0-1.86 0l-8.8 4.63a2 2 0 0 1-2.89-2.1l1.68-9.81a2 2 0 0 0-.57-1.76L24.73 34a2 2 0 0 1 1.11-3.4l9.84-1.43a2 2 0 0 0 1.5-1.09l4.4-8.92a2 2 0 0 1 3.58 0l4.4 8.92a2 2 0 0 0 1.5 1.09l9.84 1.43A2 2 0 0 1 62 34l-7.13 6.94a2 2 0 0 0-.57 1.76l1.7 9.81a2 2 0 0 1-2.9 2.1Z"/></g></g></svg>