<svg xmlns="http://www.w3.org/2000/svg" xml:space="preserve" viewBox="0 0 80 80"><g fill="none" stroke="#000" stroke-linecap="round" stroke-miterlimit="10" stroke-width="4"><path stroke-linejoin="round" d="M40 5c13.563 0 25.315 7.72 31.126 19M75 40a34.847 34.847 0 0 0-3.874-16M30.18 73.588A34.747 34.747 0 0 0 40 75c19.33 0 35-15.67 35-35M5 40C5 20.67 20.67 5 40 5M5.956 48.102A34.836 34.836 0 0 1 5 40M5 40h70M71.138 24h-.012M35 55.999 64 56M40 13v54M21.578 40a40.043 40.043 0 0 1 3.334-16M22.084 46.341A40.125 40.125 0 0 1 21.578 40M58.431 40c0-5.457-1.121-10.91-3.341-16"/><path stroke-linejoin="round" d="m40 5-6.716 6.716A39.854 39.854 0 0 0 24.912 24M40 5l6.716 6.716A39.87 39.87 0 0 1 55.091 24M33.665 68.665 40 75l6.716-6.716a39.874 39.874 0 0 0 8.375-12.285 40.047 40.047 0 0 0 3.341-16"/><path d="M26.412 65.837a7.524 7.524 0 0 0 2.151-6.072c-.352-3.553-3.304-6.45-6.866-6.739a7.524 7.524 0 0 0-4.519 1.06.722.722 0 0 1-.755 0c-1.794-1.087-3.988-1.39-6.107-.763a7.458 7.458 0 0 0-5.042 5.158c-.728 2.686.023 5.454 1.915 7.357l7.509 8.235c.538.589 1.304.927 2.102.927s1.564-.338 2.102-.928l7.51-8.235z"/><path stroke-linejoin="round" d="M16 24h55.126"/></g></svg>