<svg xmlns="http://www.w3.org/2000/svg" viewBox="0 0 415.22 269.07"><path d="m397.5 6.58-8 24.3-19.31 58.32-23.23 70.31-20.07 60.72c-3.24 9.81-6.81 19.56-9.74 29.47 0 .13-.09.27-.14.4l13.23-5.38-14.72-6.61-35.55-16-42.84-19.24-37.2-16.7c-6-2.7-12-5.43-18-8.1l-.26-.11c-2.73-1.23-5.18-1.65-8-.46a8.8 8.8 0 0 0-5.21 5.83l-6.74 25.09-10.74 40-2.47 9.2h17.36l-6.6-46.61-4.68-33c-.81-5.73-1.31-11.63-2.45-17.31-.81-4-4.21-5.64-7.56-7l-5.79-2.34-22.49-9.09-63.58-25.65c-13.55-5.48-27-11.22-40.68-16.45l-.64-.25v17.35l10.62-2.66 28.88-7.24 42.73-10.72 52.13-13.07 57.1-14.33 57.65-14.46 53.76-13.48 45.44-11.4 32.69-8.2c5.16-1.29 10.35-2.52 15.5-3.89l.67-.16c4.57-1.15 7.76-6.52 6.29-11.08A9.19 9.19 0 0 0 403.78.3L393.17 3l-28.88 7.25-42.73 10.67L269.43 34l-57.08 14.32-57.67 14.46-53.77 13.49-45.43 11.39-32.69 8.2c-5.16 1.3-10.36 2.5-15.5 3.89l-.67.17a9.1 9.1 0 0 0-6.61 8.68c.19 4.29 2.75 7.12 6.61 8.67l13.37 5.41 32.1 13 38.84 15.7 33.57 13.57c5.41 2.19 10.78 4.57 16.27 6.57l.24.1-6.29-6.28 4.63 32.89 7.4 52.22 1.7 12c.52 3.71 5.12 6.77 8.68 6.61a9.24 9.24 0 0 0 8.68-6.61l6.73-25.09 10.75-40 2.47-9.2-13.23 5.38 14.72 6.61 35.55 16 42.84 19.24 37.2 16.7c6 2.7 12 5.43 18 8.1l.26.11c2.73 1.23 5.18 1.65 8 .46a9.06 9.06 0 0 0 5.21-5.83l8-24.3 19.28-58.32L384.91 102l20.07-60.72c3.25-9.81 6.78-19.57 9.74-29.47 0-.13.09-.27.14-.4 1.49-4.51-1.72-10.07-6.29-11.11a9.2 9.2 0 0 0-11.07 6.28Z" class="cls-1"/><path d="m181.65 193.54 6.14-4.74 16.71-12.89 24.62-19 30-23.17 33-25.46 33.3-25.7 30.93-23.89 26.16-20.2 18.88-14.56 8.96-6.93.38-.29c1.94-1.5 3.45-2.91 4.14-5.38a9.25 9.25 0 0 0-.91-6.94 9.17 9.17 0 0 0-12.32-3.22l-7 4.12-19.21 11.27-28.25 16.55-34.45 20.18-37.84 22.17-38.2 22.38-35.5 20.8-30 17.58-21.67 12.68c-3.41 2-6.83 4-10.23 6l-.43.25c-4.07 2.38-5.87 8.23-3.23 12.32a9.16 9.16 0 0 0 12.31 3.22l7-4.12 19.16-11.23 28.25-16.55 34.44-20.18 37.85-22.17 38.19-22.37 35.52-20.81 30-17.58L400.05 23c3.41-2 6.85-4 10.24-6l.43-.25-9.09-15.54-6.13 4.73-16.71 12.9-24.62 19L324.14 61l-33 25.46-33.29 25.7-31 23.89-26.16 20.19-18.87 14.57-8.93 6.88-.38.3c-1.94 1.5-3.45 2.9-4.13 5.37a9.19 9.19 0 0 0 .91 6.94 9.1 9.1 0 0 0 5.37 4.14c2.19.49 5.08.53 6.94-.91ZM239.78 208.18l-8.68 4-21 9.75-25.25 11.78-21.95 10.2c-3.53 1.64-7.14 3.18-10.61 4.94l-.15.07a9.06 9.06 0 0 0-4.14 5.38 9.21 9.21 0 0 0 .91 6.93 9.12 9.12 0 0 0 5.38 4.14 10.24 10.24 0 0 0 6.93-.91l8.69-4 21-9.75 25.28-11.74 21.94-10.2c3.53-1.64 7.14-3.18 10.62-4.94l.15-.07a9 9 0 0 0-2.15-16.45 10.26 10.26 0 0 0-6.94.91Z" class="cls-1"/></svg>