<svg xmlns="http://www.w3.org/2000/svg" xml:space="preserve" viewBox="0 0 1000 1000"><path d="M445 655H170c-11 0-20-9-20-20V360c0-11 9-20 20-20h275c11 0 20 9 20 20v275c0 11-9 20-20 20z"/><path d="M445 195.1 157.3 482.8c-9.4 9.4-9.4 24.6 0 34L445 804.4c15.1 15.1 41 4.4 41-17V212.1c0-21.4-25.9-32.1-41-17zM608.2 724.7c45.6-45.9 77.6-105.7 88.3-169.6 10.9-65 2.3-130.8-25.4-190.7-15.3-33.2-37.1-63.6-62.9-89.5-9.2-9.3-26.2-9.9-35.4 0-9.2 10-9.9 25.4 0 35.4 5.5 5.6 10.9 11.3 16 17.3 2.2 2.6 4.4 5.2 6.5 7.9.6.7 1.2 1.6 1.8 2.3-4.3-4.8-2.2-2.9-1.3-1.6 1.3 1.7 2.6 3.5 3.9 5.2 8.7 12.1 16.6 24.9 23.3 38.2 1.5 2.9 2.9 5.9 4.3 8.8.8 1.7 1.6 3.4 2.3 5.1.4.9.7 1.7 1.1 2.6 1.7 4-1.8-4.3-.6-1.5 2.7 6.7 5.2 13.4 7.5 20.3 4.5 13.6 7.9 27.5 10.4 41.6l.9 5.4c.3 2 1 8.4.1.2.4 3.7.9 7.3 1.2 11 .6 7.1 1 14.2 1.2 21.3.3 14.5-.9 28.8-2.4 43.3 0-.2.9-6.7.3-2.5-.1.7-.2 1.4-.3 2l-.9 5.4c-.6 3.6-1.3 7.2-2.1 10.9-1.5 7-3.2 13.9-5.2 20.8-2 7.1-4.4 14.2-6.9 21.1-1.1 3.1-2.3 6.1-3.6 9.1-1.5 3.8.8-1.8.9-2.1-.4.8-.7 1.7-1.1 2.6-.8 1.9-1.7 3.8-2.6 5.8-7 15-15.2 29.4-24.6 43-2.3 3.4-4.7 6.6-7.2 9.9-2.4 3.3 1-1.3 1.3-1.6-.8.9-1.5 1.9-2.2 2.8-1.4 1.7-2.7 3.4-4.1 5.1-5.7 6.8-11.6 13.3-17.9 19.5-9.2 9.3-10 26.2 0 35.4 10 8.9 25.5 9.7 35.4-.2z"/><path d="M540.2 648.7c30.1-30.4 51.6-70.1 58.5-112.5 7.1-43.6 1.4-86.9-17-127-10.1-21.9-24.6-41.9-41.5-58.9-9.2-9.3-26.2-9.9-35.4 0-9.2 10-9.8 25.4 0 35.4 3.5 3.5 6.8 7.1 10 10.8 1.4 1.7 2.8 3.4 4.2 5 2.2 2.6-3.8-5.2-.8-1.1.9 1.2 1.7 2.3 2.6 3.5 5.4 7.5 10.2 15.4 14.4 23.6 1 1.9 1.9 3.8 2.8 5.7.8 1.8 3.8 9.4.9 1.7 1.7 4.3 3.4 8.6 4.8 13 2.9 8.7 5.1 17.7 6.7 26.8.2 1.2 1.3 8.3.6 3.5-.7-4.7.2 2.2.3 3.5.5 4.8.7 9.6.8 14.4.2 9-.8 17.8-1.4 26.7.6-8.7 0-.5-.3 1.5-.4 2.3-.8 4.5-1.3 6.8-.9 4.5-2.1 9-3.3 13.4-1.2 4-2.4 8-3.9 11.9-.8 2.2-1.6 4.3-2.5 6.5-1.5 3.8.8-1.8.9-2.1-.8 1.4-1.3 3-2 4.5-4.4 9.4-9.5 18.4-15.4 27-1.5 2.2-3 4.3-4.6 6.4-2.4 3.3 1-1.4 1.3-1.6-1.2 1.1-2.2 2.7-3.2 3.9-3.6 4.3-7.4 8.5-11.4 12.5-9.2 9.3-10 26.2 0 35.4 9.8 8.9 25.3 9.7 35.2-.2z"/></svg>