<svg xmlns="http://www.w3.org/2000/svg" xml:space="preserve" viewBox="0 0 1000 1000"><path d="M445 655H170c-11 0-20-9-20-20V360c0-11 9-20 20-20h275c11 0 20 9 20 20v275c0 11-9 20-20 20z"/><path d="M445 195.1 157.3 482.8c-9.4 9.4-9.4 24.6 0 34L445 804.4c15.1 15.1 41 4.4 41-17V212.1c0-21.4-25.9-32.1-41-17zM563.8 415.7l68.4 68.4 109.1 109.1 25.2 25.2c9.3 9.3 26.2 9.9 35.4 0 9.2-10 9.9-25.5 0-35.4l-68.4-68.4-109.1-109.1-25.2-25.2c-9.3-9.3-26.2-9.9-35.4 0-9.1 10-9.9 25.5 0 35.4z"/><path d="m767.3 381.1-68.4 68.4-109.1 109.1-25.2 25.2c-9.3 9.3-9.9 26.2 0 35.4 10 9.2 25.5 9.9 35.4 0l68.4-68.4 109.1-109.1 25.2-25.2c9.3-9.3 9.9-26.2 0-35.4-10-9.2-25.5-9.9-35.4 0z"/></svg>