<svg xmlns="http://www.w3.org/2000/svg" xml:space="preserve" viewBox="0 0 52 52"><path d="M49 40.502h-2.02c-.148-1.827-1.4-3.955-5.64-5.432-2.14-.75-4.54-.75-6.68 0-4.25 1.485-5.503 3.616-5.645 5.432H22.98c-.148-1.827-1.4-3.955-5.64-5.432-2.14-.75-4.54-.75-6.68 0-4.25 1.485-5.503 3.616-5.645 5.432H3a1 1 0 1 0 0 2h2.266c.194.627.494 1.27.924 1.918C7.88 46.98 10.8 48.5 14 48.5s6.12-1.52 7.81-4.08c.42-.646.722-1.287.92-1.918h6.536c.194.627.494 1.27.924 1.918 1.69 2.56 4.61 4.08 7.81 4.08s6.12-1.52 7.81-4.08c.42-.646.722-1.287.92-1.918H49a1 1 0 1 0 0-2zM26 33.5c13.68 0 24-4.08 24-9.5 0-2.644-2.525-5.05-7.008-6.79.004.099.007.199.007.29v6.972l-1.803.783C36.204 27.409 31.119 28.5 26.079 28.5c-5.044 0-10.125-1.092-15.103-3.244l-1.818-.775.01-7.333C4.584 18.892 2 21.321 2 24c0 5.42 10.32 9.5 24 9.5z"/><path d="m11.16 23.16.61.26c4.74 2.05 9.56 3.08 14.31 3.08 4.76 0 9.57-1.03 14.32-3.08l.6-.26V17.5c0-.09 0-.19-.01-.29 0-.59-.06-1.2-.16-1.87C39.68 8.48 33.45 3.5 26 3.5S12.32 8.48 11.17 15.34v.047c-.103.66-.156 1.257-.159 1.82-.009.099-.01.197-.01.295 0 .195.07.366.165.52l-.006 5.138z"/></svg>