<svg xmlns="http://www.w3.org/2000/svg" xml:space="preserve" viewBox="0 0 24 24"><path d="M16.5 6.6c0-2.4-2-4.4-4.5-4.4s-4.5 2-4.5 4.4C7.5 9 9.5 11 12 11s4.5-2 4.5-4.4zm-7 0c0-1.3 1.1-2.4 2.5-2.4s2.5 1.1 2.5 2.4S13.4 9 12 9 9.5 7.9 9.5 6.6zM4.6 16.3l-.5 1.9c-.3.9-.1 1.9.5 2.7C5.2 21.6 6 22 7 22h6.9c.6 0 1-.4 1-1s-.4-1-1-1H7c-.4 0-.6-.2-.7-.4-.3-.2-.4-.6-.3-.9l.5-1.9C7 15.1 8.4 14 10 14h4c.8 0 1.6.3 2.3.8.4.4 1.1.3 1.4-.1.4-.4.3-1.1-.1-1.4-1-.8-2.3-1.3-3.6-1.3h-4c-2.5 0-4.7 1.7-5.4 4.3z"/><path d="M20.1 16.9c-.4-.4-1-.4-1.4 0l-.7.7-.7-.7c-.4-.4-1-.4-1.4 0s-.4 1 0 1.4l.7.7-.7.7c-.4.4-.4 1 0 1.4.2.2.5.3.7.3s.5-.1.7-.3l.7-.7.7.7c.2.2.5.3.7.3s.5-.1.7-.3c.4-.4.4-1 0-1.4l-.7-.7.7-.7c.4-.4.4-1 0-1.4z"/></svg>