<?xml version="1.0" encoding="UTF-8"?>
<svg xmlns="http://www.w3.org/2000/svg" viewBox="0 0 71.14 70.17">
    <defs>
        <style>.d{fill:#fff;}</style>
    </defs>
    <g id="a" />
    <g id="b">
        <g id="c">
            <path class="d" d="M64.45,0H6.69C3,0,0,3.09,0,6.89V63.27c0,3.8,3,6.89,6.69,6.89h57.75c3.69,0,6.7-3.09,6.7-6.89V6.89c0-3.8-3-6.89-6.7-6.89Zm2.14,40.46v22.82c0,1.23-.96,2.24-2.14,2.24H6.69c-1.18,0-2.14-1-2.14-2.24v-22.82H14.08l3.69,8.58c.34,.79,1.1,1.29,1.94,1.29h11.69c.89,0,1.69-.57,1.99-1.42l2.58-7.19,3.15,7.32c.34,.79,1.1,1.29,1.94,1.29h11.69c.89,0,1.69-.57,1.99-1.42l3.03-8.45h8.81Zm-15.31,5.54h-8.82l-2.38-5.54h13.19l-1.99,5.54Zm-21.35,0h-8.82l-2.38-5.54h13.19l-1.99,5.54Zm-10.79-15.06h30.61c.6,0,1.17-.26,1.57-.71,.4-.44,.59-1.04,.54-1.62l-.35-5.68c-.09-1.13-1-1.99-2.11-1.99H24.36l2.66-5.91h22.37c1.17,0,2.12-.97,2.12-2.17s-.95-2.17-2.12-2.17H25.66c-.82,0-1.58,.5-1.93,1.26l-4.6,10.25c-.3,.67-.25,1.44,.13,2.06,.39,.63,1.06,1.01,1.79,1.01h26.36l.06,1.33H18.57c-.37,0-.74,.1-1.05,.29l-12.96,7.58V6.89c0-1.23,.96-2.24,2.14-2.24h57.75c1.18,0,2.14,1,2.14,2.24v29.23H10.26l8.88-5.19Z" />
        </g>
    </g>
</svg>